# xmcd
#
# Track frame offsets:
#	150
#	30852
#	61092
#	105087
#	107494
#	112007
#	187272
#	240981
#	280820
#	301631
#
# Disc length: 4369 seconds
#
# Revision: 1
# Processed by: cddbd v1.5.2PL0 Copyright (c) Steve Scherf et al.
# Submitted via: audiograbber 1.83.01
#
DISCID=6e110f0a
DTITLE=Grateful Dead - 77-05-13 Auditorium Theatre, Chicago IL
DYEAR=1900
DGENRE=
TTITLE0=Samson and Delilah
TTITLE1=Bertha
TTITLE2=Estimated Prophet
TTITLE3=Tuning
TTITLE4=Drums
TTITLE5=The Other One
TTITLE6=Stella Blue
TTITLE7=GDTRFB
TTITLE8=One More Saturday Night
TTITLE9=US Blues
EXTD=
EXTT0=
EXTT1=
EXTT2=
EXTT3=
EXTT4=
EXTT5=
EXTT6=
EXTT7=
EXTT8=
EXTT9=
PLAYORDER=
